<svg width="34" height="34" viewBox="0 0 34 34" fill="none" xmlns="http://www.w3.org/2000/svg">
<g id="ic_my_interest">
<g id="Vector">
<path d="M16.0283 5.79127C16.4258 4.98593 17.5742 4.98593 17.9717 5.79127L20.8877 11.6998C21.0455 12.0196 21.3506 12.2413 21.7035 12.2926L28.0711 13.2178C28.9863 13.3508 29.325 14.4953 28.6296 15.1049L23.4575 19.6391C23.1518 19.9071 23.0218 20.3237 23.121 20.718L24.6884 26.9529C24.9168 27.8614 23.9626 28.6121 23.1333 28.1761L17.5042 25.2167C17.1886 25.0508 16.8115 25.0508 16.4958 25.2167L10.8667 28.1761C10.0374 28.6121 9.08318 27.8614 9.31158 26.9529L10.879 20.718C10.9781 20.3237 10.8482 19.9071 10.5424 19.6391L5.3704 15.1049C4.67502 14.4953 5.01373 13.3508 5.92888 13.2178L12.2965 12.2926C12.6494 12.2413 12.9545 12.0196 13.1123 11.6998L16.0283 5.79127Z" fill="#C0A1FF"/>
<path d="M21.2789 12.2735L17.9667 5.73179C17.5656 4.93966 16.4344 4.93966 16.0333 5.73179L12.7212 12.2735C12.6844 12.3462 12.6559 12.4227 12.6363 12.5017L8.90608 27.5155C8.68182 28.4181 9.62412 29.1652 10.4518 28.7411L16.5058 25.6386C16.8161 25.4796 17.1839 25.4796 17.4942 25.6386L23.5482 28.7411C24.3759 29.1652 25.3182 28.4181 25.0939 27.5155L21.3637 12.5017C21.3441 12.4227 21.3156 12.3462 21.2789 12.2735Z" fill="#7534FF"/>
</g>
</g>
</svg>
