<svg width="51" height="23" viewBox="0 0 51 23" fill="none" xmlns="http://www.w3.org/2000/svg">
<rect width="51" height="23" rx="4" fill="#F1E8FF"/>
<path d="M13.7663 10.5859H15.3366V11.6758H13.7663V17.0195H12.4655V6.44922H13.7663V10.5859ZM5.41078 14.125C6.70375 13.4805 7.69984 12.7051 8.39906 11.7988C9.09828 10.8887 9.51234 9.83203 9.64125 8.62891H5.985V7.55078H10.9655C10.9577 11.0273 9.35219 13.5547 6.14906 15.1328L5.41078 14.125ZM21.2372 7.12891C21.2372 7.51172 21.202 7.87891 21.1317 8.23047H23.1708V6.46094H24.4716V12.7539H23.1708V11.5234H20.6278V10.4688H23.1708V9.27344H20.8095C20.454 10.0938 19.8876 10.793 19.1102 11.3711C18.3329 11.9492 17.3739 12.3906 16.2333 12.6953L15.7411 11.6523C16.5458 11.4414 17.2411 11.166 17.827 10.8262C18.4169 10.4824 18.8798 10.0879 19.2157 9.64258C19.5555 9.19727 19.7626 8.71484 19.8368 8.19531H16.3153V7.12891H21.2372ZM17.2528 13.1992H24.4716V17.0078H23.1708V14.2305H17.2528V13.1992ZM34.8488 17.043H33.6066V6.44922H34.8488V17.043ZM25.5441 14.0312C26.0363 13.7305 26.4464 13.334 26.7745 12.8418C27.1066 12.3457 27.3507 11.7988 27.507 11.2012C27.6671 10.5996 27.7472 9.98047 27.7472 9.34375V8.64062H25.9073V7.58594H30.712V8.64062H29.0011V9.34375C29.0011 9.96094 29.0773 10.5547 29.2296 11.125C29.382 11.6953 29.6183 12.2129 29.9386 12.6777C30.2628 13.1426 30.6691 13.5156 31.1573 13.7969L30.3839 14.7578C29.9073 14.4766 29.503 14.0977 29.171 13.6211C28.839 13.1406 28.5773 12.5879 28.3859 11.9629C28.1905 12.6426 27.921 13.2441 27.5773 13.7676C27.2374 14.291 26.8253 14.7031 26.3409 15.0039L25.5441 14.0312ZM29.9386 10.1406H31.462V6.64844H32.6925V16.5273H31.462V11.1953H29.9386V10.1406ZM39.8705 8.99219C39.8666 9.64453 39.974 10.2793 40.1927 10.8965C40.4115 11.5137 40.7279 12.0625 41.142 12.543C41.556 13.0234 42.0423 13.3828 42.6009 13.6211L41.8275 14.6641C41.2298 14.3867 40.7084 13.9844 40.263 13.457C39.8216 12.9258 39.4759 12.3066 39.2259 11.5996C38.9759 12.3613 38.6224 13.0293 38.1654 13.6035C37.7123 14.1777 37.1713 14.6133 36.5423 14.9102L35.7455 13.8203C36.3197 13.5742 36.8177 13.2031 37.2396 12.707C37.6615 12.207 37.9838 11.6348 38.2064 10.9902C38.4291 10.3457 38.5423 9.67969 38.5463 8.99219V7.30469H39.8705V8.99219ZM43.3627 6.44922H44.6752V17.0547H43.3627V6.44922Z" fill="#7534FF"/>
</svg>
