<svg width="28" height="29" viewBox="0 0 28 29" fill="none" xmlns="http://www.w3.org/2000/svg">
<path d="M4.32097 7.37055H5.70369C6.43713 7.37055 7.14053 7.07009 7.65915 6.53526C8.17777 6.00044 8.46912 5.27506 8.46912 4.5187C8.46912 4.14052 8.6148 3.77783 8.87411 3.51042C9.13342 3.243 9.48512 3.09277 9.85184 3.09277H18.1481C18.5149 3.09277 18.8666 3.243 19.1259 3.51042C19.3852 3.77783 19.5309 4.14052 19.5309 4.5187C19.5309 5.27506 19.8222 6.00044 20.3408 6.53526C20.8594 7.07009 21.5628 7.37055 22.2963 7.37055H23.679C24.4124 7.37055 25.1158 7.67101 25.6345 8.20584C26.1531 8.74067 26.4444 9.46604 26.4444 10.2224V23.0557C26.4444 23.8121 26.1531 24.5375 25.6345 25.0723C25.1158 25.6071 24.4124 25.9076 23.679 25.9076H4.32097C3.58754 25.9076 2.88414 25.6071 2.36552 25.0723C1.8469 24.5375 1.55554 23.8121 1.55554 23.0557V10.2224C1.55554 9.46604 1.8469 8.74067 2.36552 8.20584C2.88414 7.67101 3.58754 7.37055 4.32097 7.37055Z" fill="#9D9D9D"/>
<path d="M10.5555 17.5928C10.5555 18.521 10.9243 19.4113 11.5807 20.0676C12.237 20.724 13.1273 21.0928 14.0555 21.0928C14.9838 21.0928 15.874 20.724 16.5304 20.0676C17.1868 19.4113 17.5555 18.521 17.5555 17.5928C17.5555 16.6645 17.1868 15.7743 16.5304 15.1179C15.874 14.4615 14.9838 14.0928 14.0555 14.0928C13.1273 14.0928 12.237 14.4615 11.5807 15.1179C10.9243 15.7743 10.5555 16.6645 10.5555 17.5928Z" stroke="white" stroke-width="1.5" stroke-linecap="round" stroke-linejoin="round"/>
<circle cx="20.5926" cy="12.1298" r="1.03704" fill="white"/>
</svg>
