<svg width="59" height="33" viewBox="0 0 59 33" fill="none" xmlns="http://www.w3.org/2000/svg">
<rect width="59" height="33" rx="16.5" fill="#262626"/>
<path d="M19.9531 19.4648H14.9141V12.4453H19.9531V19.4648ZM18.6875 18.4219V13.4648H16.2031V18.4219H18.6875ZM21.8516 11.4492H23.1641V22.0547H21.8516V11.4492ZM33.5764 22.043H32.3225V16.6055H31.1858V21.5508H29.967V11.7305H31.1858V15.5508H32.3225V11.4492H33.5764V22.043ZM24.4006 18.9258C25.4944 18.293 26.3088 17.5605 26.844 16.7285C27.383 15.8926 27.7014 14.9258 27.7991 13.8281H24.8928V12.7852H29.0647C29.0647 13.7969 28.9436 14.7246 28.7014 15.5684C28.4592 16.4121 28.0491 17.1953 27.4709 17.918C26.8928 18.6367 26.1194 19.2734 25.1506 19.8281L24.4006 18.9258ZM44.27 17.6836H34.6138V16.6289H38.7739V15.7031H35.8677V11.7422H37.1567V12.75H41.727V11.7422H43.0161V15.7031H40.0864V16.6289H44.27V17.6836ZM35.7505 20.1562C35.7505 19.7578 35.895 19.418 36.1841 19.1367C36.4731 18.8555 36.893 18.6406 37.4438 18.4922C37.9946 18.3438 38.6567 18.2695 39.4302 18.2695C40.1919 18.2695 40.8462 18.3438 41.393 18.4922C41.9438 18.6406 42.3657 18.8555 42.6587 19.1367C42.9555 19.418 43.1059 19.7578 43.1098 20.1562C43.1059 20.5547 42.9555 20.8945 42.6587 21.1758C42.3657 21.457 41.9438 21.6699 41.393 21.8145C40.8462 21.959 40.1919 22.0312 39.4302 22.0312C38.6567 22.0312 37.9946 21.959 37.4438 21.8145C36.893 21.6699 36.4731 21.457 36.1841 21.1758C35.895 20.8984 35.7505 20.5586 35.7505 20.1562ZM37.0513 20.1562C37.0513 20.4414 37.2505 20.6602 37.6489 20.8125C38.0473 20.9609 38.6274 21.0352 39.3891 21.0352C40.1665 21.0352 40.7583 20.9609 41.1645 20.8125C41.5747 20.6641 41.7817 20.4453 41.7856 20.1562C41.7817 19.8633 41.5786 19.6426 41.1763 19.4941C40.7778 19.3457 40.1958 19.2695 39.4302 19.2656C38.6528 19.2695 38.061 19.3457 37.6548 19.4941C37.2524 19.6426 37.0513 19.8633 37.0513 20.1562ZM41.727 14.6836V13.7461H37.1567V14.6836H41.727Z" fill="white"/>
</svg>
