<svg width="99" height="32" viewBox="0 0 99 32" fill="none" xmlns="http://www.w3.org/2000/svg">
<rect width="99" height="32" rx="4" fill="#F4F4F4"/>
<path d="M24.5999 12.8105H22.9183V14.2324H24.5999V15.5039H22.9183V17.1582H21.4007V9.85742H22.9183V11.5801H24.5999V12.8105ZM13.307 13.5352C13.307 12.9655 13.4505 12.4551 13.7376 12.0039C14.0293 11.5482 14.428 11.195 14.9339 10.9443C15.4443 10.6891 16.014 10.5638 16.6429 10.5684C17.2672 10.5638 17.8323 10.6891 18.3382 10.9443C18.8441 11.195 19.2428 11.5482 19.5345 12.0039C19.8262 12.4551 19.9743 12.9655 19.9788 13.5352C19.9743 14.1139 19.8262 14.6312 19.5345 15.0869C19.2474 15.5381 18.8509 15.8913 18.345 16.1465C17.8392 16.4017 17.2718 16.5293 16.6429 16.5293C16.014 16.5293 15.4443 16.4017 14.9339 16.1465C14.428 15.8913 14.0293 15.5381 13.7376 15.0869C13.4505 14.6312 13.307 14.1139 13.307 13.5352ZM14.6878 17.6914H22.9183V22.2168H21.4007V18.9219H14.6878V17.6914ZM14.7972 13.5352C14.7972 13.877 14.8747 14.1777 15.0296 14.4375C15.1891 14.6927 15.4079 14.8887 15.6859 15.0254C15.9684 15.1621 16.2874 15.2305 16.6429 15.2305C16.9938 15.2305 17.3083 15.1621 17.5863 15.0254C17.8642 14.8887 18.083 14.6927 18.2425 14.4375C18.4066 14.1777 18.4886 13.877 18.4886 13.5352C18.4886 13.1979 18.4066 12.904 18.2425 12.6533C18.083 12.3981 17.8642 12.2021 17.5863 12.0654C17.3083 11.9287 16.9938 11.8581 16.6429 11.8535C16.2874 11.8581 15.9684 11.9287 15.6859 12.0654C15.4079 12.2021 15.1891 12.3981 15.0296 12.6533C14.8747 12.904 14.7972 13.1979 14.7972 13.5352ZM34.7379 13.4121H36.4605V14.6836H34.7379V18.7715H33.193V9.85742H34.7379V13.4121ZM24.9488 16.2832C25.8831 16.0143 26.692 15.668 27.3756 15.2441C28.0592 14.8203 28.5969 14.3395 28.9889 13.8018C29.3854 13.2594 29.6269 12.6738 29.7135 12.0449H25.4684V10.8008H31.3746C31.3746 11.8854 31.1467 12.8675 30.691 13.7471C30.2353 14.6221 29.5745 15.3763 28.7086 16.0098C27.8427 16.6387 26.7991 17.1309 25.5777 17.4863L24.9488 16.2832ZM26.7945 17.8555H28.3395V20.7402H35.2027V21.9707H26.7945V17.8555ZM40.8153 10.7188C41.4624 10.7188 42.0435 10.8464 42.5585 11.1016C43.0735 11.3522 43.4768 11.7054 43.7684 12.1611C44.0647 12.6123 44.2151 13.125 44.2196 13.6992C44.2151 14.278 44.0647 14.7952 43.7684 15.251C43.4768 15.7021 43.0735 16.0553 42.5585 16.3105C42.0435 16.5658 41.4624 16.6934 40.8153 16.6934C40.1727 16.6934 39.5917 16.5658 39.0721 16.3105C38.5572 16.0553 38.1539 15.6999 37.8622 15.2441C37.5705 14.7884 37.4247 14.2734 37.4247 13.6992C37.4247 13.125 37.5705 12.6123 37.8622 12.1611C38.1584 11.7054 38.564 11.3522 39.079 11.1016C39.594 10.8464 40.1727 10.7188 40.8153 10.7188ZM36.8641 18.4023C38.3772 18.4023 39.7899 18.3773 41.1024 18.3271C42.4149 18.2725 43.6636 18.1608 44.8485 17.9922L44.9716 19.0996C43.7502 19.332 42.5038 19.4824 41.2323 19.5508C39.9654 19.6146 38.5731 19.6465 37.0555 19.6465L36.8641 18.4023ZM38.9286 13.6992C38.9286 14.0365 39.0083 14.3327 39.1679 14.5879C39.3319 14.8385 39.5575 15.0322 39.8446 15.1689C40.1317 15.3011 40.4553 15.3672 40.8153 15.3672C41.1799 15.3672 41.5057 15.3011 41.7929 15.1689C42.0845 15.0322 42.3124 14.8385 42.4764 14.5879C42.6451 14.3327 42.7294 14.0365 42.7294 13.6992C42.7294 13.362 42.6451 13.068 42.4764 12.8174C42.3124 12.5667 42.0845 12.373 41.7929 12.2363C41.5057 12.0996 41.1799 12.0312 40.8153 12.0312C40.4553 12.0312 40.1317 12.0996 39.8446 12.2363C39.5575 12.373 39.3319 12.569 39.1679 12.8242C39.0083 13.0749 38.9286 13.3665 38.9286 13.6992ZM45.5868 9.85742H47.1044V22.2305H45.5868V9.85742ZM56.0873 12.8242C56.0828 13.5671 56.199 14.2917 56.436 14.998C56.6775 15.7044 57.0239 16.3379 57.475 16.8984C57.9308 17.4544 58.4708 17.8828 59.0952 18.1836L58.1655 19.4004C57.5092 19.0677 56.9396 18.5938 56.4565 17.9785C55.978 17.3633 55.6043 16.6523 55.3354 15.8457C55.0574 16.707 54.6655 17.4681 54.1596 18.1289C53.6583 18.7852 53.0613 19.2865 52.3686 19.6328L51.4389 18.416C52.0815 18.1107 52.6375 17.6663 53.1069 17.083C53.5808 16.4951 53.9409 15.832 54.187 15.0938C54.4376 14.3509 54.5652 13.5944 54.5698 12.8242V10.8555H56.0873V12.8242ZM59.8334 9.85742H61.351V14.6973H63.2514V15.9961H61.351V22.2168H59.8334V9.85742ZM74.7566 17.0215H63.4909V15.8047H66.1159V14.2393C65.642 14.0387 65.2797 13.7858 65.029 13.4805C64.7784 13.1706 64.653 12.8151 64.653 12.4141C64.653 11.9264 64.8331 11.5072 65.1931 11.1562C65.5577 10.8008 66.0749 10.5296 66.7448 10.3428C67.4148 10.1559 68.2032 10.0625 69.1101 10.0625C70.017 10.0625 70.8031 10.1559 71.4685 10.3428C72.1384 10.5296 72.6556 10.8008 73.0202 11.1562C73.3848 11.5072 73.5671 11.9264 73.5671 12.4141C73.5626 12.8151 73.4327 13.1706 73.1775 13.4805C72.9268 13.7904 72.5645 14.0433 72.0905 14.2393V15.8047H74.7566V17.0215ZM64.8034 19.9746C64.8034 19.5052 64.9743 19.1064 65.3161 18.7783C65.6579 18.4456 66.1501 18.195 66.7927 18.0264C67.4398 17.8532 68.2123 17.7689 69.1101 17.7734C69.9942 17.7689 70.7553 17.8532 71.3933 18.0264C72.0359 18.195 72.528 18.4456 72.8698 18.7783C73.2162 19.1064 73.3894 19.5052 73.3894 19.9746C73.3894 20.4486 73.2185 20.8496 72.8767 21.1777C72.5349 21.5104 72.0427 21.7611 71.4001 21.9297C70.7621 22.1029 69.9987 22.1895 69.1101 22.1895C68.2077 22.1895 67.4353 22.1029 66.7927 21.9297C66.1501 21.7611 65.6579 21.5104 65.3161 21.1777C64.9743 20.8496 64.8034 20.4486 64.8034 19.9746ZM66.239 12.4141C66.2344 12.7832 66.476 13.068 66.9636 13.2686C67.4558 13.4645 68.1553 13.5625 69.0622 13.5625C70.001 13.5625 70.7234 13.4645 71.2292 13.2686C71.7396 13.0726 71.9948 12.7878 71.9948 12.4141C71.9948 12.0404 71.7442 11.751 71.2429 11.5459C70.7461 11.3408 70.0489 11.2383 69.1511 11.2383C68.2168 11.2383 67.4968 11.3408 66.9909 11.5459C66.4851 11.7464 66.2344 12.0358 66.239 12.4141ZM66.3484 19.9746C66.3438 20.321 66.5739 20.5853 67.0388 20.7676C67.5036 20.9499 68.1781 21.041 69.0622 21.041C69.9691 21.041 70.6618 20.9521 71.1404 20.7744C71.6234 20.5921 71.8672 20.3255 71.8718 19.9746C71.8672 19.6328 71.628 19.373 71.154 19.1953C70.6801 19.0176 69.9987 18.9264 69.1101 18.9219C68.2077 18.9264 67.5196 19.0176 67.0456 19.1953C66.5762 19.373 66.3438 19.6328 66.3484 19.9746ZM70.573 15.8047V14.6289C70.1127 14.6927 69.6251 14.7246 69.1101 14.7246C68.5951 14.7246 68.1075 14.6927 67.6472 14.6289V15.8047H70.573ZM85.0586 12.6738H86.7812V13.918H85.0586V16.8027H83.541V9.85742H85.0586V12.6738ZM75.2148 15.8184C76.1582 15.5768 76.9694 15.2601 77.6484 14.8682C78.3275 14.4717 78.8607 14.0182 79.248 13.5078C79.64 12.9928 79.8815 12.4368 79.9727 11.8398H75.8027V10.6094H81.627C81.627 11.6712 81.3991 12.626 80.9434 13.4736C80.4922 14.3213 79.8337 15.0436 78.9678 15.6406C78.1019 16.2376 77.0514 16.7025 75.8164 17.0352L75.2148 15.8184ZM77.0605 17.2949H85.0586V22.0527H77.0605V17.2949ZM83.5547 20.8496V18.5391H78.5781V20.8496H83.5547Z" fill="#262626"/>
</svg>
