<svg width="34" height="34" viewBox="0 0 34 34" fill="none" xmlns="http://www.w3.org/2000/svg">
<path d="M5.99105 17.7966C3.33632 15.1418 3.33632 10.8377 5.99104 8.18294C8.64577 5.52821 12.9499 5.52821 15.6047 8.18294L26.5292 19.1075L18.474 27.1627C17.6133 28.0234 16.2179 28.0234 15.3572 27.1627L5.99105 17.7966Z" fill="#C0A1FF"/>
<path d="M27.8947 17.7966C30.5495 15.1418 30.5495 10.8377 27.8948 8.18294C25.24 5.52821 20.9359 5.52821 18.2811 8.18294L15.1486 11.3155C10.8452 15.6189 10.8452 22.5961 15.1486 26.8995L15.4118 27.1627C16.2725 28.0234 17.6679 28.0234 18.5286 27.1627L27.8947 17.7966Z" fill="#7534FF"/>
</svg>
