<svg width="67" height="34" viewBox="0 0 67 34" fill="none" xmlns="http://www.w3.org/2000/svg">
<rect x="0.5" y="0.866211" width="66" height="32" rx="16" fill="white"/>
<rect x="0.5" y="0.866211" width="66" height="32" rx="16" stroke="#D9D9D9"/>
<path d="M18.1484 13.7256C18.1484 15.0205 18.9863 16.2393 20.6445 16.749L20.0234 17.7686C18.834 17.3936 17.9902 16.6377 17.5273 15.6826C17.0586 16.7959 16.168 17.6807 14.8906 18.1084L14.2344 17.0771C15.9395 16.5205 16.8359 15.1436 16.8359 13.7373V13.6084H14.5977V12.5537H20.3516V13.6084H18.1484V13.7256ZM15.6758 20.3701C15.6758 19.1045 17.0469 18.3662 19.2617 18.3662C21.459 18.3662 22.8066 19.1045 22.8125 20.3701C22.8066 21.6475 21.459 22.3975 19.2617 22.3975C17.0469 22.3975 15.6758 21.6475 15.6758 20.3701ZM16.9766 20.3701C16.9766 21.0264 17.8086 21.3721 19.2617 21.3779C20.709 21.3721 21.5234 21.0264 21.5234 20.3701C21.5234 19.7256 20.709 19.3857 19.2617 19.3857C17.8086 19.3857 16.9766 19.7256 16.9766 20.3701ZM21.4062 18.1318V11.8154H22.707V14.3584H24.1836V15.4248H22.707V18.1318H21.4062ZM34.1623 20.0889V21.1553H24.4827V20.0889H34.1623ZM25.6077 13.6201V12.5654H33.0139V15.9756H26.9319V17.3584H33.26V18.3896H25.6311V14.9326H31.7248V13.6201H25.6077Z" fill="#555555"/>
<path d="M41 14.8662L45.0003 18.8662L49 14.8662" stroke="#9D9D9D" stroke-linecap="round"/>
</svg>
