<svg width="47" height="27" viewBox="0 0 47 27" fill="none" xmlns="http://www.w3.org/2000/svg">
<rect width="47" height="27" fill="#7534FF"/>
<path d="M14.4998 10.1367H13.574V12.4629C14.0427 12.4316 14.492 12.3906 14.9216 12.3398L14.9802 13.3008C14.0466 13.4414 13.0623 13.5332 12.0271 13.5762C10.992 13.6191 9.86695 13.6406 8.65211 13.6406L8.51148 12.6094C9.03883 12.6094 9.44508 12.6074 9.73023 12.6035V10.1367H8.79273V9.12891H14.4998V10.1367ZM9.96461 14.3555H16.8904V17.0859H11.2654V17.918H17.2185V18.9492H9.97633V16.1484H15.5896V15.375H9.96461V14.3555ZM10.9841 12.5859C11.2732 12.5781 11.7146 12.5625 12.3084 12.5391V10.1367H10.9841V12.5859ZM15.5896 8.44922H16.8904V10.6172H18.367V11.6953H16.8904V13.9102H15.5896V8.44922ZM21.5137 9.22266C22.0449 9.22266 22.5176 9.37695 22.9316 9.68555C23.3457 9.99023 23.6699 10.4258 23.9043 10.9922C24.1426 11.5547 24.2637 12.2109 24.2676 12.9609C24.2637 13.7148 24.1426 14.375 23.9043 14.9414C23.6699 15.5078 23.3457 15.9453 22.9316 16.2539C22.5176 16.5586 22.0449 16.7109 21.5137 16.7109C20.9785 16.7109 20.502 16.5586 20.084 16.2539C19.666 15.9453 19.3398 15.5078 19.1055 14.9414C18.875 14.375 18.7598 13.7148 18.7598 12.9609C18.7598 12.2109 18.875 11.5547 19.1055 10.9922C19.3398 10.4258 19.666 9.99023 20.084 9.68555C20.502 9.37695 20.9785 9.22266 21.5137 9.22266ZM20.0137 12.9609C20.0137 13.4922 20.0762 13.9531 20.2012 14.3438C20.3262 14.7305 20.502 15.0254 20.7285 15.2285C20.9551 15.4316 21.2168 15.5352 21.5137 15.5391C21.8145 15.5352 22.0762 15.4316 22.2988 15.2285C22.5254 15.0254 22.7012 14.7305 22.8262 14.3438C22.9512 13.957 23.0137 13.4961 23.0137 12.9609C23.0137 12.4297 22.9512 11.9707 22.8262 11.584C22.7012 11.1973 22.5254 10.9023 22.2988 10.6992C22.0723 10.4961 21.8105 10.3945 21.5137 10.3945C21.2168 10.3945 20.9551 10.498 20.7285 10.7051C20.502 10.9082 20.3262 11.2031 20.2012 11.5898C20.0762 11.9727 20.0137 12.4297 20.0137 12.9609ZM25.6621 8.44922H26.9629V12.5156H28.5918V13.6172H26.9629V19.043H25.6621V8.44922ZM38.4768 17.7539H28.7971V16.6875H31.0354V14.0098C30.6057 13.7637 30.2717 13.4531 30.0334 13.0781C29.7991 12.7031 29.6838 12.2852 29.6877 11.8242C29.6877 11.2695 29.8538 10.7812 30.1858 10.3594C30.5217 9.93359 30.9885 9.60547 31.5862 9.375C32.1838 9.14062 32.8596 9.02344 33.6135 9.02344C34.3713 9.02344 35.0491 9.14062 35.6467 9.375C36.2483 9.60547 36.717 9.93359 37.053 10.3594C37.3928 10.7812 37.5627 11.2695 37.5627 11.8242C37.5666 12.2773 37.4534 12.6875 37.2229 13.0547C36.9924 13.4219 36.6682 13.7305 36.2502 13.9805V16.6875H38.4768V17.7539ZM30.9651 11.8242C30.9651 12.1797 31.0745 12.4922 31.2932 12.7617C31.5159 13.0273 31.8264 13.2324 32.2248 13.377C32.6272 13.5215 33.0901 13.5938 33.6135 13.5938C34.137 13.5938 34.5998 13.5215 35.0022 13.377C35.4084 13.2324 35.7229 13.0273 35.9455 12.7617C36.1721 12.4922 36.2854 12.1797 36.2854 11.8242C36.2854 11.4648 36.1721 11.1504 35.9455 10.8809C35.7229 10.6113 35.4084 10.4062 35.0022 10.2656C34.5998 10.125 34.137 10.0547 33.6135 10.0547C33.0862 10.0547 32.6213 10.125 32.219 10.2656C31.8205 10.4062 31.512 10.6113 31.2932 10.8809C31.0745 11.1465 30.9651 11.4609 30.9651 11.8242ZM34.926 16.6875V14.4785C34.512 14.5684 34.0745 14.6133 33.6135 14.6133C33.1721 14.6133 32.7424 14.5703 32.3245 14.4844V16.6875H34.926Z" fill="white"/>
</svg>
