<svg width="69" height="33" viewBox="0 0 69 33" fill="none" xmlns="http://www.w3.org/2000/svg">
<rect width="69" height="33" rx="16.5" fill="#262626"/>
<path d="M24.0078 17.5078H19.8125V18.5273H22.8359V21.9141H15.4883V18.5273H18.5234V17.5078H14.3516V16.4648H24.0078V17.5078ZM15.2188 11.7656H23.1172V12.8086H21.6641V14.625H23.0586V15.6797H15.2773V14.625H16.6719V12.8086H15.2188V11.7656ZM21.5703 20.8594V19.5352H16.7773V20.8594H21.5703ZM20.3516 14.625V12.8086H17.9727V14.625H20.3516ZM28.3381 13.0078C28.3342 13.3945 28.428 13.7734 28.6194 14.1445C28.8108 14.5117 29.092 14.8418 29.4631 15.1348C29.8381 15.4238 30.2873 15.6445 30.8108 15.7969L30.2014 16.8281C29.6155 16.6523 29.1096 16.3906 28.6838 16.043C28.258 15.6914 27.926 15.2793 27.6877 14.8066C27.4416 15.334 27.0959 15.7949 26.6506 16.1895C26.2053 16.584 25.6819 16.875 25.0803 17.0625L24.4358 16.043C24.9709 15.8672 25.4338 15.6191 25.8245 15.2988C26.2151 14.9785 26.512 14.6172 26.7151 14.2148C26.9182 13.8125 27.0217 13.4062 27.0256 12.9961V12.9609H24.7991V11.9062H30.5295V12.9609H28.3381V13.0078ZM26.3694 17.3203H33.3538V20.0742H27.6819V20.9062H33.6936V21.9258H26.3811V19.1016H32.053V18.3516H26.3694V17.3203ZM30.2366 13.6875H32.053V11.4492H33.3538V16.875H32.053V14.7305H30.2366V13.6875ZM43.7309 22.043H42.4888V11.4492H43.7309V22.043ZM34.4263 19.0312C34.9184 18.7305 35.3286 18.334 35.6567 17.8418C35.9888 17.3457 36.2329 16.7988 36.3891 16.2012C36.5493 15.5996 36.6294 14.9805 36.6294 14.3438V13.6406H34.7895V12.5859H39.5942V13.6406H37.8833V14.3438C37.8833 14.9609 37.9595 15.5547 38.1118 16.125C38.2641 16.6953 38.5005 17.2129 38.8208 17.6777C39.145 18.1426 39.5513 18.5156 40.0395 18.7969L39.2661 19.7578C38.7895 19.4766 38.3852 19.0977 38.0532 18.6211C37.7212 18.1406 37.4595 17.5879 37.268 16.9629C37.0727 17.6426 36.8032 18.2441 36.4595 18.7676C36.1196 19.291 35.7075 19.7031 35.2231 20.0039L34.4263 19.0312ZM38.8208 15.1406H40.3442V11.6484H41.5747V21.5273H40.3442V16.1953H38.8208V15.1406ZM48.1784 12.1055C48.7331 12.1055 49.2312 12.2148 49.6726 12.4336C50.114 12.6484 50.4597 12.9492 50.7097 13.3359C50.9636 13.7227 51.0925 14.1641 51.0964 14.6602C51.0925 15.0859 50.9948 15.4746 50.8034 15.8262C50.6159 16.1777 50.3523 16.4688 50.0124 16.6992C49.6726 16.9258 49.28 17.0781 48.8347 17.1562V18.7031C49.8542 18.6523 50.7878 18.5664 51.6355 18.4453L51.7409 19.3828C50.6941 19.582 49.6257 19.7109 48.5359 19.7695C47.4499 19.8242 46.2566 19.8516 44.9558 19.8516L44.7917 18.7852C45.9597 18.7852 46.8738 18.7754 47.5339 18.7559V17.1621C47.0925 17.084 46.6999 16.9297 46.3562 16.6992C46.0124 16.4688 45.7448 16.1797 45.5534 15.832C45.3659 15.4805 45.2722 15.0898 45.2722 14.6602C45.2722 14.168 45.3972 13.7285 45.6472 13.3418C45.8972 12.9512 46.2429 12.6484 46.6843 12.4336C47.1296 12.2148 47.6277 12.1055 48.1784 12.1055ZM46.5613 14.6602C46.5613 14.9453 46.6296 15.1973 46.7663 15.416C46.907 15.6348 47.1003 15.8047 47.3464 15.9258C47.5925 16.043 47.8698 16.1016 48.1784 16.1016C48.4909 16.1016 48.7702 16.043 49.0163 15.9258C49.2663 15.8047 49.4616 15.6348 49.6023 15.416C49.7468 15.1973 49.8191 14.9453 49.8191 14.6602C49.8191 14.3711 49.7468 14.1191 49.6023 13.9043C49.4616 13.6855 49.2663 13.5176 49.0163 13.4004C48.7702 13.2832 48.4909 13.2266 48.1784 13.2305C47.8698 13.2266 47.5925 13.2832 47.3464 13.4004C47.1003 13.5176 46.907 13.6855 46.7663 13.9043C46.6296 14.1191 46.5613 14.3711 46.5613 14.6602ZM52.2683 11.4492H53.5691V22.0547H52.2683V11.4492Z" fill="white"/>
</svg>
