<svg width="51" height="51" viewBox="0 0 51 51" fill="none" xmlns="http://www.w3.org/2000/svg">
<circle cx="25.6187" cy="25.5" r="25" fill="#F1E8FF"/>
<path d="M9.0716 27.2532C7.43772 30.41 10.4972 35.2412 13.8886 37.0479C17.28 38.8546 21.3485 37.7692 22.9758 34.6058C24.6032 31.4424 23.1841 27.4187 19.7992 25.6119C16.4143 23.8052 10.7055 24.0964 9.0716 27.2532Z" fill="url(#paint0_linear_1996_4250)"/>
<path d="M20.0598 30.09C21.1383 30.09 22.0126 29.2011 22.0126 28.1045C22.0126 27.008 21.1383 26.1191 20.0598 26.1191C18.9813 26.1191 18.1069 27.008 18.1069 28.1045C18.1069 29.2011 18.9813 30.09 20.0598 30.09Z" fill="white"/>
<path d="M18.2368 31.3948C18.7905 31.3948 19.2393 30.9385 19.2393 30.3756C19.2393 29.8127 18.7905 29.3564 18.2368 29.3564C17.6832 29.3564 17.2344 29.8127 17.2344 30.3756C17.2344 30.9385 17.6832 31.3948 18.2368 31.3948Z" fill="white"/>
<path d="M42.1658 27.2532C43.7997 30.41 40.7403 35.2412 37.3488 37.0479C33.9574 38.8546 29.889 37.7692 28.2616 34.6058C26.6342 31.4424 28.0533 27.4187 31.4382 25.6119C34.8231 23.8052 40.532 24.0964 42.1658 27.2532Z" fill="url(#paint1_linear_1996_4250)"/>
<path d="M31.2136 30.09C32.2921 30.09 33.1664 29.2011 33.1664 28.1045C33.1664 27.008 32.2921 26.1191 31.2136 26.1191C30.1351 26.1191 29.2607 27.008 29.2607 28.1045C29.2607 29.2011 30.1351 30.09 31.2136 30.09Z" fill="white"/>
<path d="M33.0152 31.3948C33.5688 31.3948 34.0176 30.9385 34.0176 30.3756C34.0176 29.8127 33.5688 29.3564 33.0152 29.3564C32.4615 29.3564 32.0127 29.8127 32.0127 30.3756C32.0127 30.9385 32.4615 31.3948 33.0152 31.3948Z" fill="white"/>
<defs>
<linearGradient id="paint0_linear_1996_4250" x1="16.1343" y1="24.5" x2="16.1343" y2="37.921" gradientUnits="userSpaceOnUse">
<stop stop-color="#7534FF"/>
<stop offset="1" stop-color="#9B6BFF"/>
</linearGradient>
<linearGradient id="paint1_linear_1996_4250" x1="35.1031" y1="24.5" x2="35.1031" y2="37.921" gradientUnits="userSpaceOnUse">
<stop stop-color="#7534FF"/>
<stop offset="1" stop-color="#9B6BFF"/>
</linearGradient>
</defs>
</svg>
