<svg width="60" height="32" viewBox="0 0 60 32" fill="none" xmlns="http://www.w3.org/2000/svg">
<rect width="60" height="32" rx="4" fill="#F4F4F4"/>
<path d="M19.2065 19.209H13.3276V11.0195H19.2065V19.209ZM17.7299 17.9922V12.209H14.8315V17.9922H17.7299ZM21.4213 9.85742H22.9526V22.2305H21.4213V9.85742ZM35.1003 22.2168H33.6374V15.873H32.3113V21.6426H30.8894V10.1855H32.3113V14.6426H33.6374V9.85742H35.1003V22.2168ZM24.3952 18.5801C25.6713 17.8418 26.6215 16.9873 27.2458 16.0166C27.8747 15.0413 28.2461 13.9134 28.3601 12.6328H24.9695V11.416H29.8366C29.8366 12.5964 29.6954 13.6787 29.4128 14.6631C29.1303 15.6475 28.6517 16.5612 27.9773 17.4043C27.3028 18.2428 26.4004 18.9857 25.2702 19.6328L24.3952 18.5801ZM47.5762 17.1309H36.3105V15.9004H41.1641V14.8203H37.7734V10.1992H39.2773V11.375H44.6094V10.1992H46.1133V14.8203H42.6953V15.9004H47.5762V17.1309ZM37.6367 20.0156C37.6367 19.5508 37.8053 19.1543 38.1426 18.8262C38.4798 18.498 38.9697 18.2474 39.6123 18.0742C40.2549 17.901 41.0273 17.8145 41.9297 17.8145C42.8184 17.8145 43.5817 17.901 44.2197 18.0742C44.8623 18.2474 45.3545 18.498 45.6963 18.8262C46.0426 19.1543 46.2181 19.5508 46.2227 20.0156C46.2181 20.4805 46.0426 20.877 45.6963 21.2051C45.3545 21.5332 44.8623 21.7816 44.2197 21.9502C43.5817 22.1188 42.8184 22.2031 41.9297 22.2031C41.0273 22.2031 40.2549 22.1188 39.6123 21.9502C38.9697 21.7816 38.4798 21.5332 38.1426 21.2051C37.8053 20.8815 37.6367 20.485 37.6367 20.0156ZM39.1543 20.0156C39.1543 20.3483 39.3867 20.6035 39.8516 20.7812C40.3164 20.9544 40.9932 21.041 41.8818 21.041C42.7887 21.041 43.4792 20.9544 43.9531 20.7812C44.4316 20.6081 44.6732 20.3529 44.6777 20.0156C44.6732 19.6738 44.4362 19.4163 43.9668 19.2432C43.502 19.07 42.8229 18.9811 41.9297 18.9766C41.0228 18.9811 40.3324 19.07 39.8584 19.2432C39.389 19.4163 39.1543 19.6738 39.1543 20.0156ZM44.6094 13.6309V12.5371H39.2773V13.6309H44.6094Z" fill="#262626"/>
</svg>
