<svg width="87" height="32" viewBox="0 0 87 32" fill="none" xmlns="http://www.w3.org/2000/svg">
<rect width="87" height="32" rx="4" fill="#F4F4F4"/>
<path d="M17.4059 12.8242C17.4013 13.5671 17.5175 14.2917 17.7545 14.998C17.996 15.7044 18.3424 16.3379 18.7936 16.8984C19.2493 17.4544 19.7893 17.8828 20.4137 18.1836L19.484 19.4004C18.8277 19.0677 18.2581 18.5938 17.775 17.9785C17.2965 17.3633 16.9228 16.6523 16.6539 15.8457C16.3759 16.707 15.984 17.4681 15.4781 18.1289C14.9768 18.7852 14.3798 19.2865 13.6871 19.6328L12.7574 18.416C13.4 18.1107 13.956 17.6663 14.4254 17.083C14.8994 16.4951 15.2594 15.832 15.5055 15.0938C15.7561 14.3509 15.8837 13.5944 15.8883 12.8242V10.8555H17.4059V12.8242ZM21.152 9.85742H22.6695V14.6973H24.5699V15.9961H22.6695V22.2168H21.152V9.85742ZM36.0751 17.0215H24.8095V15.8047H27.4345V14.2393C26.9605 14.0387 26.5982 13.7858 26.3475 13.4805C26.0969 13.1706 25.9716 12.8151 25.9716 12.4141C25.9716 11.9264 26.1516 11.5072 26.5116 11.1562C26.8762 10.8008 27.3934 10.5296 28.0634 10.3428C28.7333 10.1559 29.5217 10.0625 30.4286 10.0625C31.3355 10.0625 32.1216 10.1559 32.787 10.3428C33.4569 10.5296 33.9742 10.8008 34.3388 11.1562C34.7033 11.5072 34.8856 11.9264 34.8856 12.4141C34.8811 12.8151 34.7512 13.1706 34.496 13.4805C34.2453 13.7904 33.883 14.0433 33.4091 14.2393V15.8047H36.0751V17.0215ZM26.122 19.9746C26.122 19.5052 26.2929 19.1064 26.6347 18.7783C26.9764 18.4456 27.4686 18.195 28.1112 18.0264C28.7583 17.8532 29.5308 17.7689 30.4286 17.7734C31.3127 17.7689 32.0738 17.8532 32.7118 18.0264C33.3544 18.195 33.8466 18.4456 34.1884 18.7783C34.5347 19.1064 34.7079 19.5052 34.7079 19.9746C34.7079 20.4486 34.537 20.8496 34.1952 21.1777C33.8534 21.5104 33.3612 21.7611 32.7186 21.9297C32.0806 22.1029 31.3173 22.1895 30.4286 22.1895C29.5263 22.1895 28.7538 22.1029 28.1112 21.9297C27.4686 21.7611 26.9764 21.5104 26.6347 21.1777C26.2929 20.8496 26.122 20.4486 26.122 19.9746ZM27.5575 12.4141C27.5529 12.7832 27.7945 13.068 28.2821 13.2686C28.7743 13.4645 29.4738 13.5625 30.3807 13.5625C31.3195 13.5625 32.0419 13.4645 32.5477 13.2686C33.0582 13.0726 33.3134 12.7878 33.3134 12.4141C33.3134 12.0404 33.0627 11.751 32.5614 11.5459C32.0647 11.3408 31.3674 11.2383 30.4696 11.2383C29.5354 11.2383 28.8153 11.3408 28.3095 11.5459C27.8036 11.7464 27.5529 12.0358 27.5575 12.4141ZM27.6669 19.9746C27.6623 20.321 27.8925 20.5853 28.3573 20.7676C28.8222 20.9499 29.4966 21.041 30.3807 21.041C31.2876 21.041 31.9804 20.9521 32.4589 20.7744C32.9419 20.5921 33.1858 20.3255 33.1903 19.9746C33.1858 19.6328 32.9465 19.373 32.4725 19.1953C31.9986 19.0176 31.3173 18.9264 30.4286 18.9219C29.5263 18.9264 28.8381 19.0176 28.3641 19.1953C27.8947 19.373 27.6623 19.6328 27.6669 19.9746ZM31.8915 15.8047V14.6289C31.4312 14.6927 30.9436 14.7246 30.4286 14.7246C29.9136 14.7246 29.426 14.6927 28.9657 14.6289V15.8047H31.8915ZM46.3771 12.6738H48.0998V13.918H46.3771V16.8027H44.8595V9.85742H46.3771V12.6738ZM36.5334 15.8184C37.4767 15.5768 38.2879 15.2601 38.967 14.8682C39.646 14.4717 40.1792 14.0182 40.5666 13.5078C40.9585 12.9928 41.2 12.4368 41.2912 11.8398H37.1213V10.6094H42.9455C42.9455 11.6712 42.7176 12.626 42.2619 13.4736C41.8107 14.3213 41.1522 15.0436 40.2863 15.6406C39.4204 16.2376 38.3699 16.7025 37.1349 17.0352L36.5334 15.8184ZM38.3791 17.2949H46.3771V22.0527H38.3791V17.2949ZM44.8732 20.8496V18.5391H39.8966V20.8496H44.8732ZM55.8796 17.8965C55.8796 18.4388 56.0072 18.9583 56.2624 19.4551C56.5176 19.9473 56.9004 20.3574 57.4109 20.6855C57.9258 20.3392 58.3178 19.9131 58.5866 19.4072C58.8555 18.9014 58.9922 18.3978 58.9968 17.8965V17.3906H60.487V17.8965C60.4825 18.3385 60.5668 18.7578 60.74 19.1543C60.9177 19.5508 61.1843 19.904 61.5398 20.2139C61.8998 20.5192 62.3419 20.7539 62.8659 20.918L62.1277 22.0254C61.5398 21.8294 61.043 21.5446 60.6374 21.1709C60.2364 20.7972 59.9242 20.3551 59.7009 19.8447C59.4867 20.3597 59.1928 20.8154 58.8191 21.2119C58.4454 21.613 57.9896 21.9206 57.4519 22.1348C56.8868 21.9297 56.4128 21.6335 56.03 21.2461C55.6472 20.8587 55.3532 20.4076 55.1482 19.8926C54.9203 20.3802 54.6058 20.8063 54.2048 21.1709C53.8083 21.54 53.3321 21.8249 52.7761 22.0254L52.0241 20.918C52.5391 20.7357 52.9743 20.4873 53.3298 20.1729C53.6853 19.8538 53.9519 19.4984 54.1296 19.1064C54.3073 18.71 54.3985 18.3066 54.403 17.8965V17.3906H55.8796V17.8965ZM51.7097 13.4668C51.7097 12.8971 51.8532 12.389 52.1404 11.9424C52.432 11.4958 52.8308 11.1494 53.3366 10.9033C53.8425 10.6527 54.4122 10.5273 55.0456 10.5273C55.6745 10.5273 56.2419 10.6527 56.7478 10.9033C57.2536 11.1494 57.6501 11.4958 57.9372 11.9424C58.2243 12.389 58.3679 12.8971 58.3679 13.4668C58.3679 14.0319 58.2243 14.5378 57.9372 14.9844C57.6501 15.4264 57.2536 15.7728 56.7478 16.0234C56.2419 16.2695 55.6745 16.3926 55.0456 16.3926C54.4122 16.3926 53.8425 16.2695 53.3366 16.0234C52.8308 15.7728 52.432 15.4264 52.1404 14.9844C51.8532 14.5378 51.7097 14.0319 51.7097 13.4668ZM53.1999 13.4668C53.1999 13.7995 53.2774 14.0911 53.4323 14.3418C53.5873 14.5924 53.8038 14.7884 54.0818 14.9297C54.3643 15.0664 54.6856 15.1348 55.0456 15.1348C55.3965 15.1348 55.711 15.0664 55.989 14.9297C56.267 14.7884 56.4835 14.5924 56.6384 14.3418C56.7979 14.0911 56.8777 13.7995 56.8777 13.4668C56.8777 13.1341 56.7979 12.8424 56.6384 12.5918C56.4835 12.3411 56.267 12.1497 55.989 12.0176C55.711 11.8809 55.3965 11.8125 55.0456 11.8125C54.6856 11.8125 54.3643 11.8809 54.0818 12.0176C53.8038 12.1497 53.5873 12.3411 53.4323 12.5918C53.2774 12.8424 53.1999 13.1341 53.1999 13.4668ZM60.2546 9.87109H61.7859V16.8711H60.2546V9.87109ZM68.9297 10.1035C69.8366 10.1035 70.625 10.1992 71.2949 10.3906C71.9648 10.582 72.4798 10.86 72.8398 11.2246C73.2044 11.5846 73.3867 12.013 73.3867 12.5098C73.3867 12.9974 73.2044 13.4189 72.8398 13.7744C72.4798 14.1253 71.9648 14.3942 71.2949 14.5811C70.625 14.7679 69.8366 14.8613 68.9297 14.8613C68.0319 14.8613 67.2458 14.7679 66.5713 14.5811C65.9014 14.3942 65.3841 14.1253 65.0195 13.7744C64.6549 13.4189 64.4727 12.9974 64.4727 12.5098C64.4727 12.013 64.6549 11.5846 65.0195 11.2246C65.3841 10.86 65.9014 10.582 66.5713 10.3906C67.2458 10.1992 68.0319 10.1035 68.9297 10.1035ZM63.3105 15.6953H74.5762V16.9258H63.3105V15.6953ZM64.6367 17.9102H73.209V22.0664H64.6367V17.9102ZM66.0586 12.5098C66.054 12.8789 66.3047 13.166 66.8105 13.3711C67.3164 13.5762 68.0228 13.681 68.9297 13.6855C69.8366 13.681 70.543 13.5762 71.0488 13.3711C71.5592 13.166 71.8145 12.8789 71.8145 12.5098C71.8145 12.1178 71.5615 11.8171 71.0557 11.6074C70.5498 11.3978 69.8411 11.293 68.9297 11.293C68.0182 11.293 67.3096 11.3978 66.8037 11.6074C66.3024 11.8171 66.054 12.1178 66.0586 12.5098ZM71.7324 20.8359V19.1133H66.1406V20.8359H71.7324Z" fill="#262626"/>
</svg>
