<svg width="37" height="22" viewBox="0 0 37 22" fill="none" xmlns="http://www.w3.org/2000/svg">
<rect y="0.366211" width="37" height="21" rx="4" fill="#F4F4F4"/>
<path d="M12.1484 7.72559C12.1484 9.02051 12.9863 10.2393 14.6445 10.749L14.0234 11.7686C12.834 11.3936 11.9902 10.6377 11.5273 9.68262C11.0586 10.7959 10.168 11.6807 8.89062 12.1084L8.23438 11.0771C9.93945 10.5205 10.8359 9.14355 10.8359 7.7373V7.6084H8.59766V6.55371H14.3516V7.6084H12.1484V7.72559ZM9.67578 14.3701C9.67578 13.1045 11.0469 12.3662 13.2617 12.3662C15.459 12.3662 16.8066 13.1045 16.8125 14.3701C16.8066 15.6475 15.459 16.3975 13.2617 16.3975C11.0469 16.3975 9.67578 15.6475 9.67578 14.3701ZM10.9766 14.3701C10.9766 15.0264 11.8086 15.3721 13.2617 15.3779C14.709 15.3721 15.5234 15.0264 15.5234 14.3701C15.5234 13.7256 14.709 13.3857 13.2617 13.3857C11.8086 13.3857 10.9766 13.7256 10.9766 14.3701ZM15.4062 12.1318V5.81543H16.707V8.3584H18.1836V9.4248H16.707V12.1318H15.4062ZM28.1623 14.0889V15.1553H18.4827V14.0889H28.1623ZM19.6077 7.62012V6.56543H27.0139V9.97559H20.9319V11.3584H27.26V12.3896H19.6311V8.93262H25.7248V7.62012H19.6077Z" fill="#7B7B7B"/>
</svg>
