<svg width="100" height="100" viewBox="0 0 100 100" fill="none" xmlns="http://www.w3.org/2000/svg">
<rect width="100" height="100" rx="12" fill="#EEEEEE"/>
<path d="M14.9459 54.7494C11.5339 61.3415 17.9228 71.4301 25.0049 75.2029C32.087 78.9758 40.5829 76.7093 43.9812 70.1033C47.3795 63.4974 44.4162 55.0949 37.3476 51.322C30.2791 47.5491 18.3578 48.1572 14.9459 54.7494Z" fill="url(#paint0_linear_1826_4354)"/>
<path d="M37.8912 60.6721C40.1434 60.6721 41.9692 58.8159 41.9692 56.5261C41.9692 54.2364 40.1434 52.3801 37.8912 52.3801C35.639 52.3801 33.8132 54.2364 33.8132 56.5261C33.8132 58.8159 35.639 60.6721 37.8912 60.6721Z" fill="white"/>
<path d="M34.0853 63.3969C35.2414 63.3969 36.1787 62.4441 36.1787 61.2687C36.1787 60.0932 35.2414 59.1404 34.0853 59.1404C32.9292 59.1404 31.9919 60.0932 31.9919 61.2687C31.9919 62.4441 32.9292 63.3969 34.0853 63.3969Z" fill="white"/>
<path d="M84.054 54.7494C87.466 61.3415 81.0771 71.4301 73.995 75.2029C66.9129 78.9758 58.4171 76.7093 55.0187 70.1033C51.6204 63.4974 54.5837 55.0949 61.6523 51.322C68.7208 47.5491 80.6421 48.1572 84.054 54.7494Z" fill="url(#paint1_linear_1826_4354)"/>
<path d="M61.1835 60.6721C63.4357 60.6721 65.2615 58.8159 65.2615 56.5261C65.2615 54.2364 63.4357 52.3801 61.1835 52.3801C58.9313 52.3801 57.1055 54.2364 57.1055 56.5261C57.1055 58.8159 58.9313 60.6721 61.1835 60.6721Z" fill="white"/>
<path d="M64.9452 63.3969C66.1013 63.3969 67.0385 62.4441 67.0385 61.2687C67.0385 60.0932 66.1013 59.1404 64.9452 59.1404C63.789 59.1404 62.8518 60.0932 62.8518 61.2687C62.8518 62.4441 63.789 63.3969 64.9452 63.3969Z" fill="white"/>
<defs>
<linearGradient id="paint0_linear_1826_4354" x1="29.6945" y1="49" x2="29.6945" y2="77.0262" gradientUnits="userSpaceOnUse">
<stop stop-color="#B1B1B1"/>
<stop offset="1" stop-color="#CECECE"/>
</linearGradient>
<linearGradient id="paint1_linear_1826_4354" x1="69.3054" y1="49" x2="69.3054" y2="77.0262" gradientUnits="userSpaceOnUse">
<stop stop-color="#B1B1B1"/>
<stop offset="1" stop-color="#CECECE"/>
</linearGradient>
</defs>
</svg>
