<svg width="58" height="27" viewBox="0 0 58 27" fill="none" xmlns="http://www.w3.org/2000/svg">
<rect x="0.618652" width="57" height="27" rx="4" fill="#F1E8FF"/>
<path d="M17.3849 12.5859H18.9552V13.6758H17.3849V19.0195H16.0841V8.44922H17.3849V12.5859ZM9.02943 16.125C10.3224 15.4805 11.3185 14.7051 12.0177 13.7988C12.7169 12.8887 13.131 11.832 13.2599 10.6289H9.60365V9.55078H14.5841C14.5763 13.0273 12.9708 15.5547 9.76772 17.1328L9.02943 16.125ZM24.8558 9.12891C24.8558 9.51172 24.8207 9.87891 24.7504 10.2305H26.7894V8.46094H28.0902V14.7539H26.7894V13.5234H24.2465V12.4688H26.7894V11.2734H24.4281C24.0726 12.0938 23.5062 12.793 22.7289 13.3711C21.9515 13.9492 20.9926 14.3906 19.8519 14.6953L19.3597 13.6523C20.1644 13.4414 20.8597 13.166 21.4457 12.8262C22.0355 12.4824 22.4984 12.0879 22.8344 11.6426C23.1742 11.1973 23.3812 10.7148 23.4555 10.1953H19.934V9.12891H24.8558ZM20.8715 15.1992H28.0902V19.0078H26.7894V16.2305H20.8715V15.1992ZM38.4674 19.043H37.2252V8.44922H38.4674V19.043ZM29.1627 16.0312C29.6549 15.7305 30.0651 15.334 30.3932 14.8418C30.7252 14.3457 30.9694 13.7988 31.1256 13.2012C31.2858 12.5996 31.3658 11.9805 31.3658 11.3438V10.6406H29.526V9.58594H34.3307V10.6406H32.6197V11.3438C32.6197 11.9609 32.6959 12.5547 32.8483 13.125C33.0006 13.6953 33.2369 14.2129 33.5572 14.6777C33.8815 15.1426 34.2877 15.5156 34.776 15.7969L34.0026 16.7578C33.526 16.4766 33.1217 16.0977 32.7897 15.6211C32.4576 15.1406 32.1959 14.5879 32.0045 13.9629C31.8092 14.6426 31.5397 15.2441 31.1959 15.7676C30.8561 16.291 30.444 16.7031 29.9596 17.0039L29.1627 16.0312ZM33.5572 12.1406H35.0807V8.64844H36.3112V18.5273H35.0807V13.1953H33.5572V12.1406ZM43.4891 10.9922C43.4852 11.6445 43.5926 12.2793 43.8114 12.8965C44.0301 13.5137 44.3465 14.0625 44.7606 14.543C45.1747 15.0234 45.661 15.3828 46.2196 15.6211L45.4462 16.6641C44.8485 16.3867 44.327 15.9844 43.8817 15.457C43.4403 14.9258 43.0946 14.3066 42.8446 13.5996C42.5946 14.3613 42.2411 15.0293 41.784 15.6035C41.3309 16.1777 40.7899 16.6133 40.161 16.9102L39.3641 15.8203C39.9383 15.5742 40.4364 15.2031 40.8583 14.707C41.2801 14.207 41.6024 13.6348 41.8251 12.9902C42.0477 12.3457 42.161 11.6797 42.1649 10.9922V9.30469H43.4891V10.9922ZM46.9813 8.44922H48.2938V19.0547H46.9813V8.44922Z" fill="#7534FF"/>
</svg>
