<svg width="47" height="27" viewBox="0 0 47 27" fill="none" xmlns="http://www.w3.org/2000/svg">
<rect width="47" height="27" fill="#262626"/>
<path d="M17.0076 10.043C17.0037 10.7383 16.9861 11.3438 16.9548 11.8594C16.9236 12.3711 16.8474 12.957 16.7263 13.6172H18.1912V14.6719H13.9841V19.0547H12.6716V14.6719H8.53492V13.6172H15.4021C15.531 12.9766 15.613 12.3945 15.6482 11.8711C15.6873 11.3477 15.7068 10.7734 15.7068 10.1484H9.67164V9.09375H17.0076V10.043ZM23.834 11.1797H18.6426V10.1367H20.6113V8.75391H21.9004V10.1367H23.834V11.1797ZM18.9473 14.2031C18.9434 13.7305 19.0391 13.3066 19.2344 12.9316C19.4336 12.5566 19.709 12.2656 20.0605 12.0586C20.416 11.8477 20.8145 11.7422 21.2559 11.7422C21.7012 11.7422 22.0977 11.8477 22.4453 12.0586C22.7969 12.2656 23.0703 12.5566 23.2656 12.9316C23.4648 13.3066 23.5645 13.7305 23.5645 14.2031C23.5645 14.6875 23.4648 15.1191 23.2656 15.498C23.0703 15.877 22.7969 16.1719 22.4453 16.3828C22.0977 16.5938 21.7012 16.6992 21.2559 16.6992C20.8145 16.6992 20.416 16.5938 20.0605 16.3828C19.709 16.1719 19.4336 15.877 19.2344 15.498C19.0391 15.1191 18.9434 14.6875 18.9473 14.2031ZM20.0957 14.2031C20.0957 14.4844 20.1426 14.7305 20.2363 14.9414C20.334 15.1484 20.4707 15.3086 20.6465 15.4219C20.8262 15.5312 21.0293 15.5859 21.2559 15.5859C21.4824 15.5859 21.6836 15.5312 21.8594 15.4219C22.0352 15.3086 22.1719 15.1484 22.2695 14.9414C22.3672 14.7305 22.416 14.4844 22.416 14.2031C22.416 13.9297 22.3672 13.6895 22.2695 13.4824C22.1719 13.2715 22.0352 13.1094 21.8594 12.9961C21.6836 12.8789 21.4824 12.8203 21.2559 12.8203C21.0293 12.8203 20.8281 12.8789 20.6523 12.9961C20.4766 13.1094 20.3398 13.2715 20.2422 13.4824C20.1445 13.6895 20.0957 13.9297 20.0957 14.2031ZM24.2793 8.67188H25.498V12.8086H26.5293V8.44922H27.7715V19.043H26.5293V13.8633H25.498V18.5625H24.2793V8.67188ZM38.4768 17.7539H28.7971V16.6875H31.0354V14.0098C30.6057 13.7637 30.2717 13.4531 30.0334 13.0781C29.7991 12.7031 29.6838 12.2852 29.6877 11.8242C29.6877 11.2695 29.8538 10.7812 30.1858 10.3594C30.5217 9.93359 30.9885 9.60547 31.5862 9.375C32.1838 9.14062 32.8596 9.02344 33.6135 9.02344C34.3713 9.02344 35.0491 9.14062 35.6467 9.375C36.2483 9.60547 36.717 9.93359 37.053 10.3594C37.3928 10.7812 37.5627 11.2695 37.5627 11.8242C37.5666 12.2773 37.4534 12.6875 37.2229 13.0547C36.9924 13.4219 36.6682 13.7305 36.2502 13.9805V16.6875H38.4768V17.7539ZM30.9651 11.8242C30.9651 12.1797 31.0745 12.4922 31.2932 12.7617C31.5159 13.0273 31.8264 13.2324 32.2248 13.377C32.6272 13.5215 33.0901 13.5938 33.6135 13.5938C34.137 13.5938 34.5998 13.5215 35.0022 13.377C35.4084 13.2324 35.7229 13.0273 35.9455 12.7617C36.1721 12.4922 36.2854 12.1797 36.2854 11.8242C36.2854 11.4648 36.1721 11.1504 35.9455 10.8809C35.7229 10.6113 35.4084 10.4062 35.0022 10.2656C34.5998 10.125 34.137 10.0547 33.6135 10.0547C33.0862 10.0547 32.6213 10.125 32.219 10.2656C31.8205 10.4062 31.512 10.6113 31.2932 10.8809C31.0745 11.1465 30.9651 11.4609 30.9651 11.8242ZM34.926 16.6875V14.4785C34.512 14.5684 34.0745 14.6133 33.6135 14.6133C33.1721 14.6133 32.7424 14.5703 32.3245 14.4844V16.6875H34.926Z" fill="white"/>
</svg>
