<svg width="60" height="60" viewBox="0 0 60 60" fill="none" xmlns="http://www.w3.org/2000/svg">
<circle cx="30" cy="30" r="30" fill="#F1E8FF"/>
<path d="M9.55501 32.4018C7.53624 36.3022 11.3164 42.2714 15.5068 44.5037C19.6971 46.7361 24.7239 45.395 26.7346 41.4864C28.7454 37.5778 26.992 32.6062 22.8097 30.3739C18.6274 28.1416 11.5738 28.5013 9.55501 32.4018Z" fill="url(#paint0_linear_3589_3584)"/>
<path d="M23.1314 35.9062C24.464 35.9062 25.5442 34.8079 25.5442 33.4531C25.5442 32.0983 24.464 31 23.1314 31C21.7988 31 20.7185 32.0983 20.7185 33.4531C20.7185 34.8079 21.7988 35.9062 23.1314 35.9062Z" fill="white"/>
<path d="M20.8795 37.5185C21.5635 37.5185 22.1181 36.9547 22.1181 36.2593C22.1181 35.5638 21.5635 35 20.8795 35C20.1954 35 19.6409 35.5638 19.6409 36.2593C19.6409 36.9547 20.1954 37.5185 20.8795 37.5185Z" fill="white"/>
<path d="M50.445 32.4018C52.4638 36.3022 48.6836 42.2714 44.4933 44.5037C40.3029 46.7361 35.2761 45.395 33.2654 41.4864C31.2547 37.5778 33.008 32.6062 37.1903 30.3739C41.3726 28.1416 48.4262 28.5013 50.445 32.4018Z" fill="url(#paint1_linear_3589_3584)"/>
<path d="M36.9129 35.9062C38.2455 35.9062 39.3257 34.8079 39.3257 33.4531C39.3257 32.0983 38.2455 31 36.9129 31C35.5803 31 34.5 32.0983 34.5 33.4531C34.5 34.8079 35.5803 35.9062 36.9129 35.9062Z" fill="white"/>
<path d="M39.1386 37.5185C39.8227 37.5185 40.3772 36.9547 40.3772 36.2593C40.3772 35.5638 39.8227 35 39.1386 35C38.4546 35 37.9 35.5638 37.9 36.2593C37.9 36.9547 38.4546 37.5185 39.1386 37.5185Z" fill="white"/>
<defs>
<linearGradient id="paint0_linear_3589_3584" x1="18.2815" y1="29" x2="18.2815" y2="45.5825" gradientUnits="userSpaceOnUse">
<stop stop-color="#7534FF"/>
<stop offset="1" stop-color="#9B6BFF"/>
</linearGradient>
<linearGradient id="paint1_linear_3589_3584" x1="41.7185" y1="29" x2="41.7185" y2="45.5825" gradientUnits="userSpaceOnUse">
<stop stop-color="#7534FF"/>
<stop offset="1" stop-color="#9B6BFF"/>
</linearGradient>
</defs>
</svg>
