<svg width="28" height="28" viewBox="0 0 28 28" fill="none" xmlns="http://www.w3.org/2000/svg">
<g id="ic_sell">
<rect id="Rectangle 34626861" x="5.58215" y="11.2266" width="16.8357" height="11.8212" rx="2" fill="#7534FF"/>
<g id="Vector">
<path d="M23.8316 11.226L22.6008 6.45279C22.3731 5.56944 21.5764 4.95215 20.6642 4.95215H7.33574C6.4235 4.95215 5.62685 5.56944 5.39909 6.45279L4.16833 11.226H23.8316Z" fill="#7534FF"/>
<path d="M10.7227 11.226L4.16833 11.226C4.16835 13.0021 5.58129 14.4482 7.34447 14.5016H7.54661C9.30979 14.4482 10.7227 13.0021 10.7227 11.226Z" fill="#C0A1FF"/>
<path d="M17.2772 11.226H10.7227C10.7228 13.0021 12.1357 14.4482 13.8989 14.5016H14.101C15.8642 14.4482 17.2771 13.0021 17.2772 11.226Z" fill="#C0A1FF"/>
<path d="M23.8316 11.226L17.2772 11.226C17.2772 13.0021 18.6901 14.4482 20.4533 14.5016H20.6554C22.4186 14.4482 23.8316 13.0021 23.8316 11.226Z" fill="#C0A1FF"/>
</g>
<path id="Rectangle 34626865" d="M11.3907 20.1366C11.3907 18.6956 12.559 17.5273 14 17.5273C15.4411 17.5273 16.6093 18.6956 16.6093 20.1366V23.0479H11.3907V20.1366Z" fill="#C0A1FF"/>
</g>
</svg>
