<svg width="59" height="34" viewBox="0 0 59 34" fill="none" xmlns="http://www.w3.org/2000/svg">
<rect x="0.5" y="0.866211" width="58" height="32" rx="16" fill="white"/>
<rect x="0.5" y="0.866211" width="58" height="32" rx="16" stroke="#D9D9D9"/>
<path d="M19.9531 12.8115V19.8311H14.9141V12.8115H19.9531ZM16.2031 18.7881H18.6875V13.8311H16.2031V18.7881ZM21.8516 22.4209V11.8154H23.1641V22.4209H21.8516ZM33.5764 11.8154V22.4092H32.3225V16.9717H31.1858V21.917H29.967V12.0967H31.1858V15.917H32.3225V11.8154H33.5764ZM24.4006 19.292C26.6565 17.9912 27.6116 16.3154 27.7991 14.1943H24.8928V13.1514H29.0647C29.0647 16.0166 28.1623 18.4775 25.1506 20.1943L24.4006 19.292ZM44.27 16.9951V18.0498H34.6138V16.9951H38.7739V16.0693H35.8677V12.1084H37.1567V13.1162H41.727V12.1084H43.0161V16.0693H40.0864V16.9951H44.27ZM35.7505 20.5225C35.7505 19.3154 37.1098 18.6416 39.4302 18.6357C41.7153 18.6416 43.0981 19.3154 43.1098 20.5225C43.0981 21.7354 41.7153 22.3975 39.4302 22.3975C37.1098 22.3975 35.7505 21.7354 35.7505 20.5225ZM37.0513 20.5225C37.0513 21.1025 37.8891 21.4072 39.4302 21.4014C40.9477 21.4072 41.7798 21.1025 41.7856 20.5225C41.7798 19.9307 40.9477 19.6377 39.4302 19.6318C37.8891 19.6377 37.0513 19.9307 37.0513 20.5225ZM37.1567 15.0498H41.727V14.1123H37.1567V15.0498Z" fill="#555555"/>
</svg>
