<svg width="69" height="34" viewBox="0 0 69 34" fill="none" xmlns="http://www.w3.org/2000/svg">
<rect x="0.5" y="0.866211" width="68" height="32" rx="16" fill="white"/>
<rect x="0.5" y="0.866211" width="68" height="32" rx="16" stroke="#D9D9D9"/>
<path d="M24.0078 16.8311V17.874H19.8125V18.8936H22.8359V22.2803H15.4883V18.8936H18.5234V17.874H14.3516V16.8311H24.0078ZM15.2188 13.1748V12.1318H23.1172V13.1748H21.6641V14.9912H23.0586V16.0459H15.2773V14.9912H16.6719V13.1748H15.2188ZM16.7773 21.2256H21.5703V19.9014H16.7773V21.2256ZM17.9727 14.9912H20.3516V13.1748H17.9727V14.9912ZM28.3381 13.374C28.3323 14.5166 29.1936 15.6885 30.8108 16.1631L30.2014 17.1943C29.0061 16.8369 28.1506 16.0986 27.6877 15.1729C27.2073 16.1982 26.3108 17.042 25.0803 17.4287L24.4358 16.4092C26.0881 15.8701 27.0198 14.5811 27.0256 13.3623V13.3271H24.7991V12.2725H30.5295V13.3271H28.3381V13.374ZM26.3694 18.7178V17.6865H33.3538V20.4404H27.6819V21.2725H33.6936V22.292H26.3811V19.4678H32.053V18.7178H26.3694ZM30.2366 15.0967V14.0537H32.053V11.8154H33.3538V17.2412H32.053V15.0967H30.2366ZM43.7309 11.8154V22.4092H42.4888V11.8154H43.7309ZM34.4263 19.3975C35.9555 18.4658 36.6294 16.5557 36.6294 14.71V14.0068H34.7895V12.9521H39.5942V14.0068H37.8833V14.71C37.8833 16.4971 38.522 18.29 40.0395 19.1631L39.2661 20.124C38.2876 19.5439 37.6372 18.5361 37.268 17.3291C36.893 18.6357 36.2192 19.749 35.2231 20.3701L34.4263 19.3975ZM38.8208 16.5615V15.5068H40.3442V12.0146H41.5747V21.8936H40.3442V16.5615H38.8208ZM48.1784 12.4717C49.8601 12.4717 51.0847 13.5205 51.0964 15.0264C51.0847 16.3271 50.1706 17.2881 48.8347 17.5225V19.0693C49.778 19.0225 50.7331 18.9404 51.6355 18.8115L51.7409 19.749C49.3679 20.2002 46.8249 20.2178 44.9558 20.2178L44.7917 19.1514C45.6003 19.1514 46.5437 19.1514 47.5339 19.1221V17.5283C46.2038 17.2939 45.2663 16.333 45.2722 15.0264C45.2663 13.5205 46.5144 12.4717 48.1784 12.4717ZM46.5613 15.0264C46.5554 15.8994 47.2527 16.4678 48.1784 16.4678C49.1218 16.4678 49.8132 15.8994 49.8191 15.0264C49.8132 14.1357 49.1159 13.5908 48.1784 13.5967C47.2527 13.5908 46.5554 14.1357 46.5613 15.0264ZM52.2683 22.4209V11.8154H53.5691V22.4209H52.2683Z" fill="#555555"/>
</svg>
