<svg width="24" height="19" viewBox="0 0 24 19" fill="none" xmlns="http://www.w3.org/2000/svg">
<path d="M10.5983 9.48675L12.5005 7.601L10.8198 9.3592L12.6695 7.52716L10.7001 9.50963L12.6023 7.62388L11.1882 9.41002L12.9548 7.66632L11.3018 9.5202L13.1607 7.67264L11.2905 9.57518L13.0354 7.85056L11.5805 9.77771L13.3995 7.98029L11.9152 9.61807L13.53 8.008L11.8406 9.924L13.7554 8.03468L12.0643 9.757L13.6266 8.20064L12.1523 9.73204L13.6964 8.20674L12.3387 10.0934L14.201 8.2578L12.5541 10.2265L14.3298 8.46723L12.4666 10.3937L14.3289 8.55809L12.9009 10.2964L14.5933 8.62548L12.9343 10.3646L14.6973 8.60892L12.8528 10.6466L14.5543 8.96016L13.1289 10.8013L14.9912 8.96567L13.2646 11.0346L15.0493 9.25987L13.3751 11.2751L15.2557 9.40846L13.493 11.6818L15.5435 9.65044L13.643 11.7299L15.3844 9.99329L13.6798 12.1854L15.7953 10.0968L13.6057 12.6336L15.7827 10.4758L13.6473 12.7772L15.9418 10.5083L13.5077 13.1404L15.8204 10.8405L13.5237 13.1488L15.9323 10.757" stroke="#C0A1FF" stroke-width="0.45" stroke-linecap="round" stroke-linejoin="round"/>
<path d="M13.1498 4.86676L16.2472 1.80063L13.96 4.61108L16.7917 1.80154L14.9961 4.14894L17.1515 2.01017L15.3333 4.09212L17.5412 1.89964L15.7291 4.09637L17.8628 1.97669L15.981 4.16733L18.0965 2.0787L16.3243 4.22529L18.6097 1.97196L16.5662 4.02724L18.595 2.01497L16.4981 4.21482L18.5577 2.16794L17.0192 4.04115L19.1004 1.97517L16.9568 4.20124L19.0289 2.1508L17.6222 4.10313L19.7034 2.03715L17.5974 4.25253L19.5738 2.29398L17.7305 4.38306L19.8334 2.298L18.0383 4.41227L20.0146 2.45372L18.604 4.25182L20.5929 2.2897L18.8953 4.50576L20.8933 2.52812L19.1697 4.46677L21.1894 2.47003L19.4597 4.6693L21.5318 2.61885L19.9534 4.5422L21.6766 2.83668L20.0575 4.52564L21.9072 2.6936L20.3054 4.81776L22.3901 2.76375L20.9093 4.78888L22.5982 3.10602L21.2404 4.99268L22.9727 3.27163L21.5452 5.15219L23.29 3.42758L21.7493 5.34023L23.3459 3.76122L22.3792 5.21336L23.7226 3.88738L22.6926 5.21508L23.6004 4.31039" stroke="#C0A1FF" stroke-width="0.45" stroke-linecap="round" stroke-linejoin="round"/>
<path d="M6.97166 10.3988L15.4483 2.00127L7.9765 9.82903L11.9942 5.85465L8.25522 10.0865L11.4358 6.93208L8.06751 10.4246L11.2915 7.23192L8.30982 10.7442L11.6114 7.49069L8.17196 10.9257L11.6365 7.48356L8.10216 11.295L11.8541 7.57717L8.32713 11.5548L10.6741 9.2322L8.23651 12.2277L10.5709 9.90869L8.43852 12.0798L10.5722 9.9601L8.41381 12.2292L10.5293 10.1406L8.29241 12.9367L10.4296 10.829L8.43068 13.2729L10.6727 11.0578L8.76619 13.3978L10.5418 11.6386L8.65087 13.8447L10.6055 11.9053L8.82123 13.8223L10.7668 11.8984L8.79131 14.1415L10.8075 12.1328L8.87237 14.0926L10.8179 12.1687L8.98768 14.021L10.85 12.1854L8.91918 14.4418L10.9389 12.445L9.14459 14.4684L10.951 12.6746L9.10903 14.8151L11.107 12.8374L9.1992 14.7507L11.0797 12.884L9.45843 14.6124L10.9284 13.1599L9.36999 14.8705L11.2813 12.9692L9.79133 15.0099L11.5271 13.3008L9.80953 15.3542L11.5418 13.6332L9.85894 15.4308L11.6471 13.668L10.0796 15.3941L11.8335 13.654L10.2846 15.4913L11.8903 13.8968L10.1971 15.6586L11.9944 13.8802L10.4645 15.5956L12.166 13.9092L10.517 15.9173L12.6507 13.7976L10.6375 16.0514L12.7621 13.9473L11.0285 15.9923L15.9015 11.1669L11.4121 16.1424L15.9235 11.6655L11.5781 16.1989L16.093 11.7339L11.7233 16.1836L15.9851 11.9717L12.1213 16.1484L16.0089 12.2885L12.6493 15.9986L15.9383 12.7487L13.3056 15.916L15.8498 13.3822L13.7703 15.6418L15.5893 13.8444" stroke="#C0A1FF" stroke-width="0.45" stroke-linecap="round" stroke-linejoin="round"/>
<path d="M9.87316 5.34309L11.9019 3.33083L9.45438 6.05732L12.6783 2.86468L8.83663 7.16454L13.697 2.34274L8.76033 7.27679L13.6858 2.39772L8.6966 7.38548L13.8228 2.30709" stroke="#C0A1FF" stroke-width="0.45" stroke-linecap="round" stroke-linejoin="round"/>
<path d="M3.59908 10.9671L6.05096 8.53709L3.30082 11.44L6.47232 8.30108L3.13911 12.0554L7.44985 7.77788L2.72554 12.9753L8.25311 7.49827L2.63189 13.4031L8.73428 7.37474L2.66221 13.977L14.7083 2.02998L2.60672 14.1611L14.8011 2.06839L2.76017 14.2211L15.1154 1.97925L2.70294 14.5868L5.54714 11.7737L2.61884 14.766L5.6295 11.7763L2.80524 14.752L5.32214 12.2647L2.84078 14.7807L5.24021 12.4045L2.69771 15.5074L4.9181 13.3113L3.00635 15.4457L4.89945 13.5755L3.02108 15.7781L5.16734 13.6549L3.01934 15.9598L5.06069 13.944L3.041 16.3161L5.02644 14.342L3.17625 16.4072L5.15258 14.4487L3.17493 16.7312L5.05546 14.8645L3.22391 17.0409L5.10444 15.1743L3.6782 17.1062L5.37969 15.4198L3.72284 17.4949L5.49846 15.7356L3.65824 17.6944L5.56391 15.8206L4.01543 17.8002L5.72949 16.1102L3.95994 17.9842L5.64322 16.3288L4.11035 18.1746L5.92932 16.3771L4.07177 18.2761L5.84739 16.5169L4.11251 18.5105L5.86645 16.7704L4.40033 18.7525L6.23751 16.924L4.74496 18.4865L6.20586 17.0495L4.78961 18.4997L6.08968 17.2119L5.28162 18.5543L6.2635 17.5768" stroke="#C0A1FF" stroke-width="0.45" stroke-linecap="round" stroke-linejoin="round"/>
</svg>
