<svg width="102" height="32" viewBox="0 0 102 32" fill="none" xmlns="http://www.w3.org/2000/svg">
<rect width="102" height="32" rx="4" fill="#F4F4F4"/>
<path d="M16.4502 10.7598C17.07 10.7598 17.6215 10.9398 18.1045 11.2998C18.5876 11.6553 18.9659 12.1634 19.2393 12.8242C19.5173 13.4805 19.6586 14.2461 19.6631 15.1211C19.6586 16.0007 19.5173 16.7708 19.2393 17.4316C18.9659 18.0924 18.5876 18.6029 18.1045 18.9629C17.6215 19.3184 17.07 19.4961 16.4502 19.4961C15.8259 19.4961 15.2699 19.3184 14.7823 18.9629C14.2946 18.6029 13.9141 18.0924 13.6407 17.4316C13.3718 16.7708 13.2373 16.0007 13.2373 15.1211C13.2373 14.2461 13.3718 13.4805 13.6407 12.8242C13.9141 12.1634 14.2946 11.6553 14.7823 11.2998C15.2699 10.9398 15.8259 10.7598 16.4502 10.7598ZM14.7002 15.1211C14.7002 15.7409 14.7732 16.2786 14.919 16.7344C15.0648 17.1855 15.2699 17.5296 15.5342 17.7666C15.7985 18.0036 16.1039 18.1243 16.4502 18.1289C16.8011 18.1243 17.1065 18.0036 17.3662 17.7666C17.6306 17.5296 17.8357 17.1855 17.9815 16.7344C18.1273 16.2832 18.2002 15.7454 18.2002 15.1211C18.2002 14.5013 18.1273 13.9658 17.9815 13.5146C17.8357 13.0635 17.6306 12.7194 17.3662 12.4824C17.1019 12.2454 16.7966 12.127 16.4502 12.127C16.1039 12.127 15.7985 12.2477 15.5342 12.4893C15.2699 12.7262 15.0648 13.0703 14.919 13.5215C14.7732 13.9681 14.7002 14.5013 14.7002 15.1211ZM21.2901 9.85742H22.8077V14.6016H24.708V15.8867H22.8077V22.2168H21.2901V9.85742ZM36.2132 17.9785H31.305V22.2031H29.8011V17.9785H24.9476V16.748H36.2132V17.9785ZM25.5355 14.7246C26.3239 14.6243 27.0257 14.4261 27.6409 14.1299C28.2607 13.8337 28.7484 13.4782 29.1038 13.0635C29.4639 12.6442 29.6621 12.209 29.6986 11.7578H25.9866V10.5547H35.1741V11.7578H31.4622C31.4987 12.209 31.6924 12.6442 32.0433 13.0635C32.3987 13.4782 32.8864 13.8337 33.5062 14.1299C34.126 14.4261 34.8323 14.6243 35.6253 14.7246L35.0784 15.9141C34.0303 15.7637 33.112 15.4606 32.3236 15.0049C31.5397 14.5492 30.9586 13.9863 30.5804 13.3164C30.1976 13.9863 29.6165 14.5492 28.8372 15.0049C28.0579 15.4606 27.1487 15.7637 26.1097 15.9141L25.5355 14.7246ZM46.1805 14.7793H51.0887V16.0098H39.7958V14.7793H44.6766V13.5352H46.1805V14.7793ZM40.329 13.125C41.0536 13.0794 41.7007 12.9746 42.2704 12.8105C42.8401 12.6419 43.3003 12.4323 43.6512 12.1816C44.0067 11.931 44.2369 11.6576 44.3417 11.3613H40.8348V10.1992H50.0634V11.3613H46.5223C46.6226 11.6576 46.8482 11.931 47.1991 12.1816C47.55 12.4323 48.0103 12.6419 48.58 12.8105C49.1542 12.9746 49.8081 13.0794 50.5419 13.125L50.0634 14.2598C48.9149 14.1686 47.9374 13.9385 47.1307 13.5693C46.3241 13.2002 45.7613 12.7217 45.4423 12.1338C45.1187 12.7171 44.5513 13.1956 43.7401 13.5693C42.9335 13.943 41.9605 14.1732 40.8212 14.2598L40.329 13.125ZM40.8348 17.3906H44.663V16.3926H46.1942V17.3906H50.0223V18.5391H40.8348V17.3906ZM41.6552 20.6172C41.6506 20.0885 41.9742 19.6852 42.6259 19.4072C43.2776 19.1292 44.2072 18.9902 45.4149 18.9902C46.6226 18.9902 47.5546 19.1315 48.2108 19.4141C48.8716 19.6921 49.202 20.0931 49.202 20.6172C49.202 21.1504 48.8762 21.556 48.2245 21.834C47.5728 22.1165 46.6499 22.2578 45.4559 22.2578C44.23 22.2578 43.2889 22.1188 42.6327 21.8408C41.9764 21.5628 41.6506 21.1549 41.6552 20.6172ZM43.2137 20.6172C43.2092 20.8223 43.3938 20.9772 43.7675 21.082C44.1457 21.1914 44.6949 21.2461 45.4149 21.2461C46.8778 21.2461 47.6161 21.0365 47.6298 20.6172C47.6252 20.4076 47.4384 20.2549 47.0692 20.1592C46.7046 20.0635 46.1532 20.0156 45.4149 20.0156C44.6858 20.0156 44.1343 20.0635 43.7606 20.1592C43.3915 20.2549 43.2092 20.4076 43.2137 20.6172ZM62.8947 17.459H51.6291V16.2422H62.8947V17.459ZM52.7912 12.7559C52.7912 12.2409 52.9735 11.7943 53.338 11.416C53.7072 11.0378 54.2267 10.7507 54.8966 10.5547C55.5666 10.3542 56.3504 10.2539 57.2482 10.2539C58.1414 10.2539 58.923 10.3542 59.5929 10.5547C60.2674 10.7507 60.7869 11.0378 61.1515 11.416C61.5207 11.7943 61.7052 12.2409 61.7052 12.7559C61.7052 13.2754 61.5207 13.7266 61.1515 14.1094C60.7869 14.4876 60.2674 14.7793 59.5929 14.9844C58.923 15.1849 58.1414 15.2852 57.2482 15.2852C56.3504 15.2852 55.5666 15.1849 54.8966 14.9844C54.2267 14.7793 53.7072 14.4876 53.338 14.1094C52.9735 13.7266 52.7912 13.2754 52.7912 12.7559ZM53.0236 18.375H54.5412V20.7402H61.6232V21.9707H53.0236V18.375ZM54.3771 12.7559C54.3726 13.1706 54.6186 13.4896 55.1154 13.7129C55.6167 13.9316 56.314 14.041 57.2072 14.041C58.1369 14.041 58.8569 13.9316 59.3673 13.7129C59.8778 13.4941 60.133 13.1751 60.133 12.7559C60.133 12.3503 59.8778 12.0358 59.3673 11.8125C58.8615 11.5846 58.1551 11.4707 57.2482 11.4707C56.6512 11.4707 56.1362 11.5208 55.7033 11.6211C55.2703 11.7214 54.9399 11.8695 54.7121 12.0654C54.4842 12.2568 54.3726 12.487 54.3771 12.7559ZM70.8659 11.8262C70.8659 12.3503 70.9776 12.8516 71.2009 13.3301C71.4242 13.8086 71.7546 14.2324 72.1921 14.6016C72.6296 14.9707 73.1583 15.2533 73.778 15.4492L72.9577 16.6387C72.3015 16.4154 71.7341 16.0895 71.2556 15.6611C70.7816 15.2327 70.4056 14.7246 70.1277 14.1367C69.8542 14.8066 69.4668 15.3877 68.9655 15.8799C68.4688 16.3675 67.8718 16.7344 67.1745 16.9805L66.3542 15.791C67.0014 15.5677 67.5482 15.2487 67.9948 14.834C68.4415 14.4147 68.7764 13.9362 68.9997 13.3984C69.2276 12.8561 69.3438 12.2865 69.3484 11.6895V10.5137H70.8659V11.8262ZM68.0359 19.8516C68.0359 19.3685 68.2045 18.9515 68.5417 18.6006C68.879 18.2497 69.362 17.9831 69.9909 17.8008C70.6198 17.6185 71.3627 17.5273 72.2195 17.5273C73.0671 17.5273 73.8008 17.6185 74.4206 17.8008C75.045 17.9831 75.5235 18.2497 75.8562 18.6006C76.1934 18.9515 76.362 19.3685 76.362 19.8516C76.362 20.3438 76.1934 20.7653 75.8562 21.1162C75.5235 21.4717 75.0473 21.7406 74.4275 21.9229C73.8077 22.1097 73.0717 22.2031 72.2195 22.2031C71.3627 22.2031 70.6198 22.1097 69.9909 21.9229C69.362 21.7406 68.879 21.4717 68.5417 21.1162C68.2045 20.7653 68.0359 20.3438 68.0359 19.8516ZM69.5534 19.8516C69.5534 20.2298 69.7836 20.5169 70.2439 20.7129C70.7042 20.9043 71.3627 21 72.2195 21C73.0717 21 73.7234 20.9043 74.1745 20.7129C74.6303 20.5169 74.8581 20.2298 74.8581 19.8516C74.8581 19.487 74.628 19.2067 74.1677 19.0107C73.712 18.8148 73.0626 18.7168 72.2195 18.7168C71.3718 18.7168 70.7155 18.8171 70.2507 19.0176C69.7859 19.2135 69.5534 19.4915 69.5534 19.8516ZM74.7214 9.85742H76.239V12.8652H77.9616V14.123H76.239V17.2539H74.7214V9.85742ZM83.7383 12.4141H80.2109V14.4375H83.5195V15.627H80.2109V18.0332C81.0176 18.0241 81.708 18.0013 82.2822 17.9648C82.861 17.9284 83.4512 17.8646 84.0527 17.7734L84.1758 19.0176C83.5241 19.127 82.8815 19.2021 82.248 19.2432C81.6191 19.2842 80.8444 19.3047 79.9238 19.3047H79.5957H78.7617V11.1973H83.7383V12.4141ZM84.8047 10.0762H86.2402V14.7109H87.5117V9.85742H88.9746V22.2168H87.5117V15.9414H86.2402V21.6152H84.8047V10.0762Z" fill="#262626"/>
</svg>
